<?xml version="1.0" encoding="utf-8"?>
<!-- Generator: Adobe Illustrator 25.0.1, SVG Export Plug-In . SVG Version: 6.00 Build 0)  -->
<svg version="1.0" id="katman_1" xmlns="http://www.w3.org/2000/svg" xmlns:xlink="http://www.w3.org/1999/xlink" x="0px" y="0px"
	 viewBox="0 0 560 400" style="enable-background:new 0 0 560 400;" xml:space="preserve">
<style type="text/css">
	.st0{fill-rule:evenodd;clip-rule:evenodd;fill:#4c4f71;}
	.st1{fill:#0d0c27;}
	.st2{fill:#4c4f71;}
</style>
<g transform="matrix(.787893 0 0 .787893 96.4821 140.204)">
	<circle class="st0" cx="25.1" cy="75.9" r="77.7"/>
	<g>
		<path class="st1" d="M33.4,83.1L33.4,83.1c-0.5,0-3.3,0.2-9.5,0.2c-4.9,0-8.4-0.1-9.6-0.2v0c-19-0.8-33.1-4.1-33.1-8.1
			c0-4,14.2-7.3,33.1-8.1v12.9c1.2,0.1,4.8,0.3,9.7,0.3c5.9,0,8.8-0.2,9.4-0.3V66.9C52.3,67.7,66.5,71,66.5,75
			C66.5,78.9,52.3,82.2,33.4,83.1 M33.4,65.5V54h26.4V36.4h-72V54h26.4v11.5c-21.5,1-37.6,5.2-37.6,10.3s16.2,9.3,37.6,10.3v37h19.1
			v-37C54.9,85.2,71,81,71,75.9C71,70.8,54.9,66.5,33.4,65.5"/>
		<path class="st2" d="M168.9,41.2v18.7H187v14h-18.3v28.4c0,6.3,3.5,9.3,8.5,9.3c2.5,0,5.5-0.8,7.9-2l4.5,13.9
			c-4.7,1.9-8.5,2.7-13.5,2.8c-14.3,0.5-23.6-7.6-23.6-24V73.9h-12.3v-14h12.3V42.9L168.9,41.2z M481.8,59l1.2,7.6
			c5.1-8.1,11.9-9.3,18.5-9.3c6.8,0,13.3,2.7,16.9,6.3l-7.3,14.1c-3.3-2.8-6.4-4.3-11.7-4.3c-8.5,0-16.4,4.5-16.4,16.7v34.7h-16.3
			V59L481.8,59z M441.9,84.2c-1.1-8.5-7.7-12.8-17.1-12.8c-8.8,0-16,4.3-18.4,12.8H441.9z M406.2,97.7c1.1,8.1,8.1,14,19.6,14
			c6,0,13.9-2.3,17.6-6.1l10.4,10.3c-6.9,7.2-18.3,10.7-28.3,10.7c-22.7,0-36.2-14-36.2-35.1c0-20,13.6-34.4,35-34.4
			c22,0,35.8,13.6,33.2,40.7H406.2z M334.4,31.4v36.5c5.9-7.6,13.1-9.9,20.5-9.9c18.7,0,26.9,12.7,26.9,32v34.7h-16.3V90.2
			c0-12-6.3-17.1-14.9-17.1c-9.6,0-16.3,8.1-16.3,18v33.6h-16.3V31.4L334.4,31.4z M291.2,40.4v18.7h18.1v14H291v28.4
			c0,6.3,3.5,9.3,8.5,9.3c2.5,0,5.5-0.8,7.9-2l4.5,13.9c-4.7,1.9-8.5,2.7-13.5,2.8c-14.3,0.5-23.6-7.6-23.6-24V73.1h-12.3v-14h12.3
			V42.2L291.2,40.4z M246.2,84.2c-1.1-8.5-7.7-12.8-17.1-12.8c-8.8,0-16,4.3-18.4,12.8H246.2z M210.5,97.7c1.1,8.1,8.1,14,19.6,14
			c6,0,13.9-2.3,17.6-6.1l10.4,10.3c-6.9,7.2-18.3,10.7-28.3,10.7c-22.7,0-36.2-14-36.2-35.1c0-20,13.6-34.4,34.9-34.4
			c22,0,35.7,13.6,33.2,40.7H210.5z"/>
	</g>
</g>
</svg>
